<?xml version="1.0" encoding="UTF-8" standalone="no"?>
<!DOCTYPE svg PUBLIC "-//W3C//DTD SVG 1.1//EN" "http://www.w3.org/Graphics/SVG/1.1/DTD/svg11.dtd">
<svg width="100%" height="100%" viewBox="0 0 512 512" version="1.1" xmlns="http://www.w3.org/2000/svg" xmlns:xlink="http://www.w3.org/1999/xlink" xml:space="preserve" xmlns:serif="http://www.serif.com/" style="fill-rule:evenodd;clip-rule:evenodd;stroke-linejoin:round;stroke-miterlimit:2;">
    <g transform="matrix(18.5507,0,0,18.5507,-184.579,252.561)">
        <path d="M12.217,12.82C11.913,12.82 11.685,12.789 11.533,12.725C11.381,12.662 11.305,12.554 11.305,12.402C11.305,12.098 11.761,11.87 12.673,11.718C13.94,11.516 14.845,11.205 15.39,10.787C15.935,10.369 16.334,9.73 16.587,8.868L21.793,-8.232C22.148,-9.321 22.16,-10.037 21.831,-10.379C21.502,-10.721 20.78,-10.968 19.665,-11.12C19.285,-11.17 19.025,-11.246 18.886,-11.348C18.747,-11.449 18.677,-11.588 18.677,-11.766C18.677,-11.918 18.797,-12.025 19.038,-12.089C19.279,-12.152 19.551,-12.184 19.855,-12.184C20.058,-12.184 20.419,-12.171 20.938,-12.146C21.457,-12.12 22.04,-12.101 22.686,-12.089C23.332,-12.076 23.921,-12.07 24.453,-12.07L30.571,-12.07C31.964,-12.07 33.022,-12.101 33.744,-12.165C34.466,-12.228 34.973,-12.291 35.264,-12.355C35.555,-12.418 35.726,-12.45 35.777,-12.45C35.878,-12.45 35.973,-12.393 36.062,-12.279C36.151,-12.165 36.195,-12.057 36.195,-11.956C36.195,-11.804 36.119,-11.531 35.967,-11.139C35.815,-10.746 35.65,-10.258 35.473,-9.676C35.296,-9.093 35.156,-8.434 35.055,-7.7C35.03,-7.446 34.947,-7.263 34.808,-7.149C34.669,-7.035 34.536,-6.978 34.409,-6.978C34.282,-6.978 34.175,-7.066 34.086,-7.244C33.997,-7.421 33.966,-7.649 33.991,-7.928C34.067,-9.093 33.966,-9.897 33.687,-10.341C33.408,-10.784 32.762,-11.006 31.749,-11.006L27.113,-11.006C26.505,-11.006 26.074,-10.923 25.821,-10.759C25.568,-10.594 25.378,-10.296 25.251,-9.866L22.705,-1.81C22.553,-1.354 22.515,-1.037 22.591,-0.86C22.667,-0.682 22.908,-0.606 23.313,-0.632L28.025,-0.746C28.684,-0.771 29.209,-0.917 29.602,-1.183C29.995,-1.449 30.343,-1.772 30.647,-2.152C30.824,-2.354 31.021,-2.601 31.236,-2.893C31.451,-3.184 31.673,-3.33 31.901,-3.33C32.104,-3.33 32.211,-3.222 32.224,-3.007C32.237,-2.791 32.18,-2.544 32.053,-2.266C31.825,-1.835 31.629,-1.43 31.464,-1.05C31.299,-0.67 31.154,-0.302 31.027,0.052C30.875,0.458 30.742,0.882 30.628,1.325C30.514,1.769 30.394,2.269 30.267,2.826C30.242,3.004 30.185,3.181 30.096,3.358C30.007,3.536 29.9,3.624 29.773,3.624C29.57,3.624 29.437,3.485 29.374,3.206C29.311,2.928 29.279,2.725 29.279,2.598C29.279,1.813 29.146,1.262 28.88,0.945C28.614,0.629 28.266,0.47 27.835,0.47L23.465,0.394C23.034,0.394 22.661,0.451 22.344,0.565C22.027,0.679 21.793,1.015 21.641,1.572L19.703,8.488C19.348,9.78 19.279,10.629 19.494,11.034C19.709,11.44 20.21,11.642 20.995,11.642L26.885,11.642C27.518,11.642 28.082,11.541 28.576,11.338C29.07,11.136 29.52,10.895 29.925,10.616C30.305,10.338 30.66,10.002 30.989,9.609C31.318,9.217 31.648,8.754 31.977,8.222C32.078,8.07 32.18,7.918 32.281,7.766C32.382,7.614 32.509,7.538 32.661,7.538C32.788,7.538 32.864,7.627 32.889,7.804C32.914,7.982 32.927,8.146 32.927,8.298C32.927,8.526 32.838,8.881 32.661,9.362C32.484,9.844 32.281,10.331 32.053,10.825C31.825,11.319 31.622,11.718 31.445,12.022C31.293,12.276 31.122,12.472 30.932,12.611C30.742,12.751 30.495,12.82 30.191,12.82C29.152,12.82 28.133,12.814 27.132,12.801C26.131,12.789 25.162,12.77 24.225,12.744C23.288,12.719 22.388,12.694 21.527,12.668C20.666,12.643 19.836,12.624 19.038,12.611C18.24,12.599 17.486,12.592 16.777,12.592C16.169,12.592 15.637,12.611 15.181,12.649C14.725,12.687 14.275,12.725 13.832,12.763C13.389,12.801 12.85,12.82 12.217,12.82Z" style="fill:url(#_Linear1);fill-rule:nonzero;"/>
    </g>
    <defs>
        <linearGradient id="_Linear1" x1="0" y1="0" x2="1" y2="0" gradientUnits="userSpaceOnUse" gradientTransform="matrix(24.89,0,0,25.27,11.305,0.185371)"><stop offset="0" style="stop-color:rgb(215,162,172);stop-opacity:1"/><stop offset="0.43" style="stop-color:rgb(194,174,187);stop-opacity:1"/><stop offset="1" style="stop-color:rgb(149,199,221);stop-opacity:1"/></linearGradient>
    </defs>
</svg>
